<?xml version="1.0" encoding="UTF-8"?>
<svg xmlns="http://www.w3.org/2000/svg" viewBox="0 0 232.69 200.44">
  <defs>
    <style>
      .cls-1 {
        fill: #f9ed32;
      }

      .cls-2 {
        fill: #231f20;
      }
    </style>
  </defs>
  <g id="Layer_1" data-name="Layer 1">
    <path class="cls-2" d="M198.58,191.37l4.36-29.4c-14.52,.48-29.04,.97-43.56,1.45,5.44-14.28,10.89-28.55,16.33-42.83-14.28,3.15-26.74,9.76-41.38,14.52,0-20.45-1.45-45.98-1.45-66.42-27.34,11.37-54.69,22.75-82.03,34.12C38.02,71.35,25.2,39.89,12.37,8.43c1.67-.3,4.01-.72,6.81-1.18,8.63-1.44,21.06-3.3,35.96-4.75,1.25-.12,21.04-2.02,41.8-2.41,40.9-.78,78.6,3.91,100.54,7.26-8.11,29.4-21.29,58.44-29.4,87.84,17.42,.12,38.47,.38,55.89,.5-8.59,13.19-20.81,26.23-29.4,39.42,12.7,1.57,25.41,3.15,38.11,4.72-5.08,11.37-26.86,49.24-31.95,60.62,1.94-9.44,20.57-45.37,22.51-54.81-12.22-2.42-24.44-4.84-36.66-7.26,6.65-11.86,13.31-23.71,19.96-35.57-16.45-.36-33.64,.11-50.1-.25,8.23-29.64,17.19-60.12,25.42-89.76-24.57-1.96-51.54-3.02-80.58-2.54-27.4,.45-52.9,2.21-76.22,4.72,12.95,23.23,25.89,46.46,38.84,69.69,25.53-11.01,51.06-22.02,76.59-33.03-.73,22.75-1.45,45.49-2.18,68.24,14.28-1.81,28.55-3.63,42.83-5.44-4.36,14.4-8.71,28.8-13.07,43.19,14.03-1.21,28.07-2.42,42.1-3.63-3.87,12.46-7.74,24.92-11.61,37.39Z"/>
  </g>
  <g id="Layer_3" data-name="Layer 3">
    <path class="cls-1" d="M193.3,190.02c1.61-8.18,3.21-16.36,4.82-24.55h-42.96c5.11-13.44,10.23-26.88,15.34-40.33-13.59,5.26-27.18,10.52-40.76,15.78-.58-21.33-1.17-42.66-1.75-64-26.59,11.1-53.18,22.21-79.78,33.31L9.2,10.31c-3.07,.88-6.14,1.75-9.2,2.63C14.76,46.83,29.51,80.73,44.27,114.63c25.72-8.04,51.43-16.07,77.15-24.11,1.31,18.85,2.63,37.7,3.94,56.54,11.98-4.09,23.96-8.18,35.94-12.27-3.65,11.1-7.31,22.21-10.96,33.31,13.3,1.75,26.59,3.51,39.89,5.26,1.02,5.55,2.05,11.1,3.07,16.66Z"/>
  </g>
</svg>